# xmcd
#
# Track frame offsets:
# 150
# 16000
# 29987
# 45622
# 59120
# 75400
# 88381
# 107325
# 123967
# 139196
# 157110
# 171233
#
# Disc length: 2610 seconds
#
#
# Revision: 0
# Processed by: cddbd v1.5.1PL0 Copyright (c) Steve Scherf et al.
# Submitted via: FreeRIP 2.52 
#
DISCID=a10a300c
DTITLE=VCB - VCB
DYEAR=2005
DGENRE=Country
TTITLE0=Simple Life
TTITLE1=99.9 % Sure
TTITLE2=Life Had Other Plans
TTITLE3=I Like It, I Love It
TTITLE4=Long Time Gone
TTITLE5=That´s Just Me
TTITLE6=Beautiful Goodbye
TTITLE7=Big Time
TTITLE8=Trying To Find Atlantis
TTITLE9=My Love
TTITLE10=I Want Live Again
TTITLE11=Dixieland Delight
EXTD=
EXTT0=
EXTT1=
EXTT2=
EXTT3=
EXTT4=
EXTT5=
EXTT6=
EXTT7=
EXTT8=
EXTT9=
EXTT10=
EXTT11=
PLAYORDER=
